# Blender v2.79 (sub 0) OBJ File: ''
# www.blender.org
mtllib Sphere.mtl
o Sphere
v 0.000000 0.866025 -0.500000
v 0.000000 -0.500000 -0.866025
v 0.000000 -1.000000 -0.000000
v -0.000000 1.000000 -0.000000
v 0.250000 0.866025 -0.433013
v 0.433013 0.500000 -0.750000
v 0.500000 -0.000000 -0.866025
v 0.433013 -0.500000 -0.750000
v 0.250000 -0.866025 -0.433013
v 0.433013 0.866025 -0.250000
v 0.750000 0.500000 -0.433013
v 0.866025 -0.000000 -0.500000
v 0.750000 -0.500000 -0.433013
v 0.433013 -0.866025 -0.250000
v 0.500000 0.866025 -0.000000
v 0.866025 0.500000 -0.000000
v 1.000000 -0.000000 -0.000000
v 0.866025 -0.500000 -0.000000
v 0.500000 -0.866025 -0.000000
v 0.433013 0.866025 0.250000
v 0.750000 0.500000 0.433013
v 0.866025 -0.000000 0.500000
v 0.750000 -0.500000 0.433012
v 0.433013 -0.866025 0.250000
v 0.250000 0.866025 0.433012
v 0.433013 0.500000 0.750000
v 0.500000 -0.000000 0.866025
v 0.433013 -0.500000 0.750000
v 0.250000 -0.866025 0.433012
v -0.000000 0.866025 0.500000
v -0.000000 0.500000 0.866025
v -0.000000 -0.000000 1.000000
v -0.000000 -0.500000 0.866025
v 0.000000 -0.866025 0.500000
v -0.250000 0.866025 0.433012
v -0.433013 0.500000 0.750000
v -0.500000 -0.000000 0.866025
v -0.433013 -0.500000 0.750000
v -0.250000 -0.866025 0.433012
v -0.433013 0.866025 0.250000
v -0.750000 0.500000 0.433012
v -0.866025 -0.000000 0.500000
v -0.750000 -0.500000 0.433012
v -0.433013 -0.866025 0.250000
v -0.500000 0.866025 -0.000000
v -0.866025 0.500000 -0.000000
v -1.000000 -0.000000 -0.000000
v -0.866025 -0.500000 -0.000000
v -0.500000 -0.866025 -0.000000
v -0.433012 0.866025 -0.250000
v -0.750000 0.500000 -0.433013
v -0.866025 -0.000000 -0.500000
v -0.750000 -0.500000 -0.433013
v -0.433013 -0.866025 -0.250000
v -0.250000 0.866025 -0.433013
v -0.433013 0.500000 -0.750000
v -0.500000 -0.000000 -0.866025
v -0.433013 -0.500000 -0.750000
v -0.250000 -0.866025 -0.433013
v 0.000000 0.500000 -0.866025
v 0.000000 -0.000000 -1.000000
v 0.000000 -0.866025 -0.500000
vn 0.0692 0.9636 -0.2582
vn 0.0692 -0.9636 -0.2582
vn 0.2506 -0.2506 -0.9351
vn 0.1862 0.6947 -0.6947
vn 0.1862 -0.6947 -0.6947
vn 0.2506 0.2506 -0.9351
vn 0.1890 -0.9636 -0.1890
vn 0.6846 -0.2506 -0.6846
vn 0.5086 0.6947 -0.5086
vn 0.5086 -0.6947 -0.5086
vn 0.6846 0.2506 -0.6846
vn 0.1890 0.9636 -0.1890
vn 0.9351 -0.2506 -0.2506
vn 0.6947 0.6947 -0.1862
vn 0.6947 -0.6947 -0.1862
vn 0.9351 0.2506 -0.2506
vn 0.2582 0.9636 -0.0692
vn 0.2582 -0.9636 -0.0692
vn 0.6947 0.6947 0.1862
vn 0.6947 -0.6947 0.1862
vn 0.9351 0.2506 0.2506
vn 0.2582 0.9636 0.0692
vn 0.2582 -0.9636 0.0692
vn 0.9351 -0.2506 0.2506
vn 0.5086 -0.6947 0.5086
vn 0.6846 0.2506 0.6846
vn 0.1890 0.9636 0.1890
vn 0.1890 -0.9636 0.1890
vn 0.6846 -0.2506 0.6846
vn 0.5086 0.6947 0.5086
vn 0.1862 -0.6947 0.6947
vn 0.2506 0.2506 0.9351
vn 0.0692 0.9636 0.2582
vn 0.0692 -0.9636 0.2582
vn 0.2506 -0.2506 0.9351
vn 0.1862 0.6947 0.6947
vn -0.1862 -0.6947 0.6947
vn -0.2506 0.2506 0.9351
vn -0.0692 0.9636 0.2582
vn -0.0692 -0.9636 0.2582
vn -0.2506 -0.2506 0.9351
vn -0.1862 0.6947 0.6947
vn -0.5086 -0.6947 0.5086
vn -0.6846 0.2506 0.6846
vn -0.1890 0.9636 0.1890
vn -0.1890 -0.9636 0.1890
vn -0.6846 -0.2506 0.6846
vn -0.5086 0.6947 0.5086
vn -0.9351 0.2506 0.2506
vn -0.2582 0.9636 0.0692
vn -0.2582 -0.9636 0.0692
vn -0.9351 -0.2506 0.2506
vn -0.6947 0.6947 0.1862
vn -0.6947 -0.6947 0.1862
vn -0.2582 0.9636 -0.0692
vn -0.2582 -0.9636 -0.0692
vn -0.9351 -0.2506 -0.2506
vn -0.6947 0.6947 -0.1862
vn -0.6947 -0.6947 -0.1862
vn -0.9351 0.2506 -0.2506
vn -0.1890 -0.9636 -0.1890
vn -0.6846 -0.2506 -0.6846
vn -0.5086 0.6947 -0.5086
vn -0.5086 -0.6947 -0.5086
vn -0.6846 0.2506 -0.6846
vn -0.1890 0.9636 -0.1890
vn -0.0692 -0.9636 -0.2582
vn -0.2506 -0.2506 -0.9351
vn -0.1862 0.6947 -0.6947
vn -0.1862 -0.6947 -0.6947
vn -0.2506 0.2506 -0.9351
vn -0.0692 0.9636 -0.2582
usemtl None
s off
f 1//1 4//1 5//1
f 3//2 62//2 9//2
f 2//3 61//3 7//3 8//3
f 60//4 1//4 5//4 6//4
f 62//5 2//5 8//5 9//5
f 61//6 60//6 6//6 7//6
f 3//7 9//7 14//7
f 8//8 7//8 12//8 13//8
f 6//9 5//9 10//9 11//9
f 9//10 8//10 13//10 14//10
f 7//11 6//11 11//11 12//11
f 5//12 4//12 10//12
f 13//13 12//13 17//13 18//13
f 11//14 10//14 15//14 16//14
f 14//15 13//15 18//15 19//15
f 12//16 11//16 16//16 17//16
f 10//17 4//17 15//17
f 3//18 14//18 19//18
f 16//19 15//19 20//19 21//19
f 19//20 18//20 23//20 24//20
f 17//21 16//21 21//21 22//21
f 15//22 4//22 20//22
f 3//23 19//23 24//23
f 18//24 17//24 22//24 23//24
f 24//25 23//25 28//25 29//25
f 22//26 21//26 26//26 27//26
f 20//27 4//27 25//27
f 3//28 24//28 29//28
f 23//29 22//29 27//29 28//29
f 21//30 20//30 25//30 26//30
f 29//31 28//31 33//31 34//31
f 27//32 26//32 31//32 32//32
f 25//33 4//33 30//33
f 3//34 29//34 34//34
f 28//35 27//35 32//35 33//35
f 26//36 25//36 30//36 31//36
f 34//37 33//37 38//37 39//37
f 32//38 31//38 36//38 37//38
f 30//39 4//39 35//39
f 3//40 34//40 39//40
f 33//41 32//41 37//41 38//41
f 31//42 30//42 35//42 36//42
f 39//43 38//43 43//43 44//43
f 37//44 36//44 41//44 42//44
f 35//45 4//45 40//45
f 3//46 39//46 44//46
f 38//47 37//47 42//47 43//47
f 36//48 35//48 40//48 41//48
f 42//49 41//49 46//49 47//49
f 40//50 4//50 45//50
f 3//51 44//51 49//51
f 43//52 42//52 47//52 48//52
f 41//53 40//53 45//53 46//53
f 44//54 43//54 48//54 49//54
f 45//55 4//55 50//55
f 3//56 49//56 54//56
f 48//57 47//57 52//57 53//57
f 46//58 45//58 50//58 51//58
f 49//59 48//59 53//59 54//59
f 47//60 46//60 51//60 52//60
f 3//61 54//61 59//61
f 53//62 52//62 57//62 58//62
f 51//63 50//63 55//63 56//63
f 54//64 53//64 58//64 59//64
f 52//65 51//65 56//65 57//65
f 50//66 4//66 55//66
f 3//67 59//67 62//67
f 58//68 57//68 61//68 2//68
f 56//69 55//69 1//69 60//69
f 59//70 58//70 2//70 62//70
f 57//71 56//71 60//71 61//71
f 55//72 4//72 1//72
